<svg width="115" height="115" viewBox="0 0 115 115" fill="none" xmlns="http://www.w3.org/2000/svg">
<mask id="mask0_35_61" style="mask-type:alpha" maskUnits="userSpaceOnUse" x="0" y="0" width="115" height="115">
<rect width="115" height="115" fill="#D9D9D9"/>
</mask>
<g mask="url(#mask0_35_61)">
<path d="M71.8751 95.8333C61.1737 95.8333 52.1095 92.1198 44.6824 84.6927C37.2553 77.2656 33.5417 68.2014 33.5417 57.5C33.5417 46.8785 37.2553 37.8342 44.6824 30.3672C52.1095 22.9002 61.1737 19.1667 71.8751 19.1667C82.4966 19.1667 91.5409 22.9002 99.0079 30.3672C106.475 37.8342 110.208 46.8785 110.208 57.5C110.208 68.2014 106.475 77.2656 99.0079 84.6927C91.5409 92.1198 82.4966 95.8333 71.8751 95.8333ZM71.8751 86.25C79.8612 86.25 86.6494 83.4548 92.2397 77.8646C97.8299 72.2743 100.625 65.4861 100.625 57.5C100.625 49.5139 97.8299 42.7257 92.2397 37.1354C86.6494 31.5451 79.8612 28.75 71.8751 28.75C63.889 28.75 57.1008 31.5451 51.5105 37.1354C45.9202 42.7257 43.1251 49.5139 43.1251 57.5C43.1251 65.4861 45.9202 72.2743 51.5105 77.8646C57.1008 83.4548 63.889 86.25 71.8751 86.25ZM82.7761 75.3489L89.6042 68.5208L76.6667 55.5833V38.3333H67.0834V59.5364L82.7761 75.3489ZM9.58341 43.125V33.5417H28.7501V43.125H9.58341ZM4.79175 62.2917V52.7083H28.7501V62.2917H4.79175ZM9.58341 81.4583V71.875H28.7501V81.4583H9.58341Z" fill="#1C1B1F"/>
</g>
</svg>
