<svg width="98" height="98" viewBox="0 0 98 98" fill="none" xmlns="http://www.w3.org/2000/svg">
<mask id="mask0_35_67" style="mask-type:alpha" maskUnits="userSpaceOnUse" x="0" y="0" width="98" height="98">
<rect width="98" height="98" fill="#D9D9D9"/>
</mask>
<g mask="url(#mask0_35_67)">
<path d="M20.4167 89.8333C18.1708 89.8333 16.2483 89.0337 14.649 87.4344C13.0497 85.8351 12.25 83.9125 12.25 81.6666V24.5C12.25 22.2542 13.0497 20.3316 14.649 18.7323C16.2483 17.133 18.1708 16.3333 20.4167 16.3333H24.5V8.16666H32.6667V16.3333H65.3333V8.16666H73.5V16.3333H77.5833C79.8292 16.3333 81.7517 17.133 83.351 18.7323C84.9503 20.3316 85.75 22.2542 85.75 24.5V81.6666C85.75 83.9125 84.9503 85.8351 83.351 87.4344C81.7517 89.0337 79.8292 89.8333 77.5833 89.8333H20.4167ZM20.4167 81.6666H77.5833V40.8333H20.4167V81.6666ZM20.4167 32.6667H77.5833V24.5H20.4167V32.6667ZM49 57.1667C47.8431 57.1667 46.8733 56.7753 46.0906 55.9927C45.308 55.2101 44.9167 54.2403 44.9167 53.0833C44.9167 51.9264 45.308 50.9566 46.0906 50.1739C46.8733 49.3913 47.8431 49 49 49C50.1569 49 51.1267 49.3913 51.9094 50.1739C52.692 50.9566 53.0833 51.9264 53.0833 53.0833C53.0833 54.2403 52.692 55.2101 51.9094 55.9927C51.1267 56.7753 50.1569 57.1667 49 57.1667ZM32.6667 57.1667C31.5097 57.1667 30.5399 56.7753 29.7573 55.9927C28.9747 55.2101 28.5833 54.2403 28.5833 53.0833C28.5833 51.9264 28.9747 50.9566 29.7573 50.1739C30.5399 49.3913 31.5097 49 32.6667 49C33.8236 49 34.7934 49.3913 35.576 50.1739C36.3587 50.9566 36.75 51.9264 36.75 53.0833C36.75 54.2403 36.3587 55.2101 35.576 55.9927C34.7934 56.7753 33.8236 57.1667 32.6667 57.1667ZM65.3333 57.1667C64.1764 57.1667 63.2066 56.7753 62.424 55.9927C61.6413 55.2101 61.25 54.2403 61.25 53.0833C61.25 51.9264 61.6413 50.9566 62.424 50.1739C63.2066 49.3913 64.1764 49 65.3333 49C66.4903 49 67.4601 49.3913 68.2427 50.1739C69.0254 50.9566 69.4167 51.9264 69.4167 53.0833C69.4167 54.2403 69.0254 55.2101 68.2427 55.9927C67.4601 56.7753 66.4903 57.1667 65.3333 57.1667ZM49 73.5C47.8431 73.5 46.8733 73.1087 46.0906 72.326C45.308 71.5434 44.9167 70.5736 44.9167 69.4167C44.9167 68.2597 45.308 67.2899 46.0906 66.5073C46.8733 65.7246 47.8431 65.3333 49 65.3333C50.1569 65.3333 51.1267 65.7246 51.9094 66.5073C52.692 67.2899 53.0833 68.2597 53.0833 69.4167C53.0833 70.5736 52.692 71.5434 51.9094 72.326C51.1267 73.1087 50.1569 73.5 49 73.5ZM32.6667 73.5C31.5097 73.5 30.5399 73.1087 29.7573 72.326C28.9747 71.5434 28.5833 70.5736 28.5833 69.4167C28.5833 68.2597 28.9747 67.2899 29.7573 66.5073C30.5399 65.7246 31.5097 65.3333 32.6667 65.3333C33.8236 65.3333 34.7934 65.7246 35.576 66.5073C36.3587 67.2899 36.75 68.2597 36.75 69.4167C36.75 70.5736 36.3587 71.5434 35.576 72.326C34.7934 73.1087 33.8236 73.5 32.6667 73.5ZM65.3333 73.5C64.1764 73.5 63.2066 73.1087 62.424 72.326C61.6413 71.5434 61.25 70.5736 61.25 69.4167C61.25 68.2597 61.6413 67.2899 62.424 66.5073C63.2066 65.7246 64.1764 65.3333 65.3333 65.3333C66.4903 65.3333 67.4601 65.7246 68.2427 66.5073C69.0254 67.2899 69.4167 68.2597 69.4167 69.4167C69.4167 70.5736 69.0254 71.5434 68.2427 72.326C67.4601 73.1087 66.4903 73.5 65.3333 73.5Z" fill="#1C1B1F"/>
</g>
</svg>
