<svg width="87" height="87" viewBox="0 0 87 87" fill="none" xmlns="http://www.w3.org/2000/svg">
<mask id="mask0_35_80" style="mask-type:alpha" maskUnits="userSpaceOnUse" x="0" y="0" width="87" height="87">
<rect width="87" height="87" fill="#D9D9D9"/>
</mask>
<g mask="url(#mask0_35_80)">
<path d="M21.75 50.75H65.25V43.5H21.75V50.75ZM21.75 39.875H65.25V32.625H21.75V39.875ZM21.75 29H65.25V21.75H21.75V29ZM79.75 79.75L65.25 65.25H14.5C12.5062 65.25 10.7995 64.5401 9.37969 63.1203C7.9599 61.7005 7.25 59.9938 7.25 58V14.5C7.25 12.5062 7.9599 10.7995 9.37969 9.37969C10.7995 7.9599 12.5062 7.25 14.5 7.25H72.5C74.4938 7.25 76.2005 7.9599 77.6203 9.37969C79.0401 10.7995 79.75 12.5062 79.75 14.5V79.75ZM14.5 58H68.3313L72.5 62.0781V14.5H14.5V58Z" fill="#1C1B1F"/>
</g>
</svg>
