<svg width="281" height="283" viewBox="0 0 281 283" fill="none" xmlns="http://www.w3.org/2000/svg">
<mask id="mask0_35_51" style="mask-type:alpha" maskUnits="userSpaceOnUse" x="0" y="0" width="281" height="283">
<rect width="281" height="283" fill="#D9D9D9"/>
</mask>
<g mask="url(#mask0_35_51)">
<path d="M68.4936 201.638C78.4457 193.973 89.5686 187.93 101.862 183.508C114.156 179.086 127.035 176.875 140.5 176.875C153.964 176.875 166.844 179.086 179.137 183.508C191.431 187.93 202.554 193.973 212.506 201.638C219.336 193.58 224.654 184.441 228.459 174.222C232.264 164.002 234.167 153.095 234.167 141.5C234.167 115.362 225.044 93.105 206.798 74.7297C188.553 56.3544 166.453 47.1667 140.5 47.1667C114.546 47.1667 92.4469 56.3544 74.2014 74.7297C55.9559 93.105 46.8332 115.362 46.8332 141.5C46.8332 153.095 48.7358 164.002 52.541 174.222C56.3462 184.441 61.6637 193.58 68.4936 201.638ZM140.5 153.292C128.987 153.292 119.278 149.312 111.375 141.353C103.472 133.393 99.5207 123.616 99.5207 112.021C99.5207 100.426 103.472 90.6484 111.375 82.6891C119.278 74.7297 128.987 70.75 140.5 70.75C152.013 70.75 161.721 74.7297 169.624 82.6891C177.527 90.6484 181.479 100.426 181.479 112.021C181.479 123.616 177.527 133.393 169.624 141.353C161.721 149.312 152.013 153.292 140.5 153.292ZM140.5 259.417C124.303 259.417 109.082 256.321 94.8373 250.131C80.5922 243.94 68.2009 235.539 57.6634 224.926C47.1259 214.314 38.7837 201.834 32.6368 187.488C26.4899 173.141 23.4165 157.812 23.4165 141.5C23.4165 125.188 26.4899 109.859 32.6368 95.5125C38.7837 81.166 47.1259 68.6865 57.6634 58.074C68.2009 47.4615 80.5922 39.0599 94.8373 32.8693C109.082 26.6787 124.303 23.5833 140.5 23.5833C156.696 23.5833 171.917 26.6787 186.162 32.8693C200.407 39.0599 212.799 47.4615 223.336 58.074C233.874 68.6865 242.216 81.166 248.363 95.5125C254.51 109.859 257.583 125.188 257.583 141.5C257.583 157.812 254.51 173.141 248.363 187.488C242.216 201.834 233.874 214.314 223.336 224.926C212.799 235.539 200.407 243.94 186.162 250.131C171.917 256.321 156.696 259.417 140.5 259.417ZM140.5 235.833C150.842 235.833 160.599 234.31 169.771 231.264C178.942 228.218 187.333 223.845 194.944 218.146C187.333 212.447 178.942 208.074 169.771 205.028C160.599 201.981 150.842 200.458 140.5 200.458C130.157 200.458 120.401 201.981 111.229 205.028C102.057 208.074 93.6665 212.447 86.0561 218.146C93.6665 223.845 102.057 228.218 111.229 231.264C120.401 234.31 130.157 235.833 140.5 235.833ZM140.5 129.708C145.573 129.708 149.769 128.038 153.086 124.697C156.404 121.356 158.062 117.131 158.062 112.021C158.062 106.911 156.404 102.686 153.086 99.3448C149.769 96.0038 145.573 94.3333 140.5 94.3333C135.426 94.3333 131.231 96.0038 127.913 99.3448C124.596 102.686 122.937 106.911 122.937 112.021C122.937 117.131 124.596 121.356 127.913 124.697C131.231 128.038 135.426 129.708 140.5 129.708Z" fill="#747171"/>
</g>
</svg>
