<svg width="102" height="102" viewBox="0 0 102 102" fill="none" xmlns="http://www.w3.org/2000/svg">
<mask id="mask0_35_73" style="mask-type:alpha" maskUnits="userSpaceOnUse" x="0" y="0" width="102" height="102">
<rect width="102" height="102" fill="#D9D9D9"/>
</mask>
<g mask="url(#mask0_35_73)">
<path d="M41.4375 76.5V61.625H35.0625V46.325C35.0625 44.6958 36.1781 43.2969 38.4094 42.1281C40.6406 40.9594 43.4208 40.375 46.75 40.375C50.0792 40.375 52.8594 40.9594 55.0906 42.1281C57.3219 43.2969 58.4375 44.6958 58.4375 46.325V61.625H52.0625V76.5H41.4375ZM46.75 38.25C44.9083 38.25 43.3854 37.6479 42.1813 36.4438C40.9771 35.2396 40.375 33.7167 40.375 31.875C40.375 30.0333 40.9771 28.5104 42.1813 27.3062C43.3854 26.1021 44.9083 25.5 46.75 25.5C48.5917 25.5 50.1146 26.1021 51.3187 27.3062C52.5229 28.5104 53.125 30.0333 53.125 31.875C53.125 33.7167 52.5229 35.2396 51.3187 36.4438C50.1146 37.6479 48.5917 38.25 46.75 38.25ZM46.75 89.25C36.125 89.25 27.0938 85.5312 19.6562 78.0938C12.2188 70.6562 8.5 61.625 8.5 51C8.5 45.6875 9.50938 40.7115 11.5281 36.0719C13.5469 31.4323 16.274 27.3948 19.7094 23.9594C23.1448 20.524 27.1823 17.7969 31.8219 15.7781C36.4615 13.7594 41.4375 12.75 46.75 12.75C52.0625 12.75 57.0385 13.7594 61.6781 15.7781C66.3177 17.7969 70.3552 20.524 73.7906 23.9594C77.226 27.3948 79.9531 31.4323 81.9719 36.0719C83.9906 40.7115 85 45.6875 85 51V51.85L92.7563 43.9875L98.8125 49.9375L80.75 68L62.6875 49.9375L68.7438 43.9875L76.5 51.7438V51C76.5 42.7833 73.5958 35.7708 67.7875 29.9625C61.9792 24.1542 54.9667 21.25 46.75 21.25C38.5333 21.25 31.5208 24.1542 25.7125 29.9625C19.9042 35.7708 17 42.7833 17 51C17.0708 59.2167 19.9927 66.2292 25.7656 72.0375C31.5385 77.8458 38.5333 80.75 46.75 80.75C50.7875 80.75 54.5771 79.9885 58.1188 78.4656C61.6604 76.9427 64.7771 74.8708 67.4688 72.25L73.525 78.3063C70.0542 81.7063 66.0344 84.3802 61.4656 86.3281C56.8969 88.276 51.9917 89.25 46.75 89.25Z" fill="#1C1B1F"/>
</g>
</svg>
